<?xml version="1.0" standalone="no"?>
<!DOCTYPE svg PUBLIC "-//W3C//DTD SVG 20010904//EN"
 "http://www.w3.org/TR/2001/REC-SVG-20010904/DTD/svg10.dtd">
<svg version="1.0" xmlns="http://www.w3.org/2000/svg"
 width="431.000000pt" height="430.000000pt" viewBox="0 0 431.000000 430.000000"
 preserveAspectRatio="xMidYMid meet">

<g transform="translate(0.000000,430.000000) scale(0.100000,-0.100000)"
fill="#1e3a8a" stroke="none">
<path d="M1935 4264 c-319 -46 -509 -103 -750 -227 -625 -321 -1052 -930
-1136 -1622 -16 -129 -16 -382 0 -510 89 -719 539 -1336 1211 -1659 116 -56
304 -122 422 -150 305 -71 685 -65 993 14 437 113 826 360 1121 713 355 424
527 981 473 1533 -37 384 -166 725 -395 1045 -73 102 -271 309 -379 396 -279
225 -607 375 -970 444 -86 17 -158 22 -335 24 -124 2 -238 1 -255 -1z m495
-210 c627 -92 1171 -483 1449 -1041 89 -180 129 -297 172 -510 26 -130 36
-423 20 -559 -71 -570 -380 -1066 -866 -1387 -295 -194 -696 -317 -1038 -317
-829 0 -1577 537 -1837 1320 -177 529 -114 1100 173 1583 182 305 478 574 812
738 348 171 729 230 1115 173z"/>
<path d="M1960 3829 c-553 -64 -1057 -418 -1308 -919 -135 -268 -193 -536
-178 -820 25 -479 242 -911 611 -1218 448 -374 1055 -490 1601 -307 118 39
327 146 434 222 109 78 323 286 397 387 171 232 281 509 314 786 16 143 6 405
-21 532 -119 565 -516 1029 -1059 1239 -233 91 -532 128 -791 98z m490 -214
c506 -110 925 -469 1104 -948 141 -376 118 -795 -65 -1154 -186 -368 -503
-639 -894 -767 -136 -44 -214 -57 -385 -63 -243 -8 -430 25 -631 113 -456 199
-787 610 -886 1100 -27 135 -25 424 5 561 130 602 620 1068 1227 1169 107 18
422 11 525 -11z"/>
<path d="M2037 3257 c-97 -245 -219 -578 -214 -584 2 -1 71 64 155 144 84 80
155 143 159 140 3 -4 -8 -107 -25 -229 -17 -123 -34 -248 -38 -278 -4 -30 -9
-60 -13 -66 -4 -7 -53 20 -131 72 -69 46 -129 83 -133 84 -5 0 25 -65 66 -145
42 -80 72 -147 68 -149 -4 -3 -63 -19 -131 -36 -128 -32 -159 -44 -144 -52 5
-3 71 -22 146 -43 127 -36 136 -40 124 -57 -34 -48 -401 -424 -404 -413 -2 7
6 100 18 206 11 105 19 194 17 196 -6 6 -498 -759 -492 -765 9 -10 836 226
853 242 6 7 -26 14 -196 49 -89 19 -164 36 -167 39 -3 3 85 62 197 130 112 69
227 140 256 158 31 20 56 30 61 24 5 -5 23 -69 41 -142 18 -73 36 -134 40
-137 6 -4 43 122 76 258 4 19 11 26 21 23 22 -9 475 -287 496 -304 16 -14 3
-19 -150 -49 -92 -18 -177 -37 -188 -41 -22 -10 108 -55 460 -156 299 -86 369
-105 373 -101 4 3 -119 203 -281 455 -55 85 -122 190 -150 233 -27 43 -52 76
-55 73 -4 -5 9 -145 29 -304 14 -112 14 -111 -37 -62 -78 75 -374 392 -374
400 0 4 63 25 140 46 77 21 140 42 140 45 0 3 -63 23 -140 44 -77 21 -140 41
-140 45 0 3 33 70 74 149 41 78 69 140 62 138 -6 -3 -63 -38 -126 -79 -63 -41
-120 -77 -126 -81 -8 -5 -15 18 -23 76 -6 45 -24 176 -40 292 -16 115 -27 212
-25 214 5 5 33 -21 202 -183 56 -55 105 -97 108 -94 3 3 -17 66 -44 139 -65
177 -271 692 -280 701 -4 4 -56 -116 -115 -265z"/>
</g>
</svg>
